<svg xmlns="http://www.w3.org/2000/svg" viewBox="0 0 220 160"><defs><linearGradient id="s" x1="0" y1="0" x2="1" y2="1"><stop stop-color="#e7e0df"/><stop offset=".25" stop-color="#655d69"/><stop offset=".55" stop-color="#bca9c9"/><stop offset="1" stop-color="#2b2330"/></linearGradient><linearGradient id="g"><stop stop-color="#5c4629"/><stop offset=".5" stop-color="#d5b777"/><stop offset="1" stop-color="#6e5330"/></linearGradient><filter id="d"><feDropShadow dx="0" dy="8" stdDeviation="7" flood-opacity=".78"/><feTurbulence type="fractalNoise" baseFrequency=".65" numOctaves="2" seed="6" result="n"/><feBlend in="SourceGraphic" in2="n" mode="soft-light"/></filter></defs><g filter="url(#d)"><path d="M16 46c35-25 71-31 94-16 23-15 59-9 94 16-5 57-32 89-94 100C48 135 21 103 16 46z" fill="url(#s)" stroke="url(#g)" stroke-width="4"/><path d="M33 53c25-16 48-19 70-8-9 26-28 35-54 27zM187 53c-25-16-48-19-70-8 9 26 28 35 54 27z" fill="#151219" stroke="#d9bf81" stroke-width="2"/><path d="M109 38v92M66 111c22 12 66 12 88 0" stroke="#7e6987" stroke-width="2" opacity=".75"/><path d="M26 42l18-23 8 20 18-25 7 24M194 42l-18-23-8 20-18-25-7 24" fill="none" stroke="#d4b874" stroke-width="3"/></g></svg>