<svg xmlns="http://www.w3.org/2000/svg" viewBox="0 0 360 480" role="img" aria-label="Anonymous hidden traitor silhouette treatment">
<defs><radialGradient id="bg" cx="50%" cy="38%" r="65%"><stop stop-color="#2e3035"/><stop offset=".55" stop-color="#17191d"/><stop offset="1" stop-color="#090a0c"/></radialGradient><linearGradient id="edge" x1="0" y1="0" x2="1" y2="1"><stop stop-color="#82745d"/><stop offset=".5" stop-color="#2f2c29"/><stop offset="1" stop-color="#6f6350"/></linearGradient></defs>
<rect width="360" height="480" rx="8" fill="url(#bg)"/><path d="M102 385c7-66 39-95 78-104-28-17-46-52-46-90 0-56 20-96 46-96s46 40 46 96c0 38-18 73-46 90 39 9 71 38 78 104z" fill="#07080a"/><path d="M138 175c13-15 27-23 42-23 16 0 30 8 42 23" stroke="#34363c" stroke-width="8" stroke-linecap="round" opacity=".7"/><rect x="8" y="8" width="344" height="464" rx="6" fill="none" stroke="url(#edge)" stroke-width="4"/><path d="M105 422h150" stroke="#8c7a5b" stroke-opacity=".38"/>
<text x="180" y="445" text-anchor="middle" font-family="Georgia,serif" font-style="italic" font-size="22" fill="#c8bda9">Identity concealed</text></svg>